<?xml version="1.0" encoding="UTF-8"?>
<svg id="coralBanner1" xmlns="http://www.w3.org/2000/svg" viewBox="0 0 190.3 199.67">
  <defs>
    <style>
      .cls-1, .cls-2 {
        stroke-width: 1.05px;
      }

      .cls-1, .cls-2, .cls-3 {
        fill: none;
      }

      .cls-1, .cls-2, .cls-3, .cls-4 {
        stroke: #570060;
      }

      .cls-1, .cls-3, .cls-4 {
        stroke-miterlimit: 10;
      }

      .cls-2 {
        stroke-linecap: round;
        stroke-linejoin: round;
      }

      .cls-3 {
        stroke-width: .63px;
      }

      .cls-4 {
        fill: #ffebde;
      }
    </style>
  </defs>
  <path class="cls-4" d="M71.06,49.81c.86.47,1.47,1.38,2.43,1.81-1.01,1.03.05,4.07,1.42,4.52-.98.17-1.05,1.55-1.05,2.54s-1.1,2.91-.12,3.07c-.56.91-1.04,1.97-.73,2.99-.63.68-1.31,1.6-1.22,2.52.05.55.38,1.12.16,1.63-.17.38-.88.78-1.07,1.15-.08.15-.1.33-.12.5-.2,1.41-.99,2.73-2.13,3.57-.15.11-.3.21-.41.36-.38.49-.08,1.24.41,1.63-.38.35-.25,1.12-.46,1.59-.19.42-.6.68-.93,1-1.12,1.07-1.34,2.76-1.5,4.31-.45.31-1.09.83-1.54,1.14-.19.13-.38.26-.53.44-.41.53-.26,1.3,0,1.92-.22.22-.5.84-.72,1.06-.62.61-1.26,1.26-1.43,2.11-.21,1.06.36,2.22-.09,3.19-.11.23-.26.43-.4.65-.35.57-.53,1.25-.5,1.93.02.43-.48.78-.84,1.03-.62.42-1.24.84-1.85,1.26-.31.21-.64.44-.83.77s-.18.8.12,1.04c.19.15.44.18.67.22.83.15,1.43.17,2.25.52.04.49.05.98.09,1.47.03.43.06.87,0,1.3-.07.38-.21.74-.34,1.11-.32.94-.49,1.93-.51,2.92-.02.79.12,1.68.75,2.15-.4.69-1.07,1.35-1.61,1.93s-1.05,1.27-1.11,2.06.48,1.68,1.27,1.73c.57.04,1.2-.32,1.67,0,.12.08.21.2.29.32,1.73,2.54.6,6.37,2.56,8.73.57.68-.3,1.91-.73,2.69s-.93,1.56-.98,2.45.57,1.88,1.46,1.87c.97-.02,1.67-1.18,2.63-1.1.64.05,1.09.64,1.46,1.17.69,1.01,1.39,2.02,2.08,3.03.63.91,1.26,1.85,1.52,2.92.21.86.16,1.76.27,2.64s.41,1.8,1.13,2.32,1.91.41,2.29-.39c.24-.51.16-1.23.64-1.52,1.72,1.81,4.66,2.18,6.43,3.94.34.34.65.73,1.09.95s1.05.17,1.29-.25c-.26.46.15,1.06.47,1.47.59.75,1.36,1.37,2.23,1.77.1.05.2.09.3.1.14.01.28-.04.4-.11.42-.23.69-.68.83-1.14s.14-.95.14-1.44c.36-.06.61-.23.92-.41,1.28-.74,2.83-1,4.28-.73-.02.62-.06,1.4-.07,2.02,0,.45,0,.93.26,1.29.39.54,1.17.57,1.84.55.66-.02,1.32-.04,1.99-.06-.57,1.45-.62,3.14-.44,4.69.05.42.13.86.35,1.22s.62.64,1.05.62c.5-.03.87-.43,1.24-.76s.9-.62,1.34-.4c.34.18.48.6.52.99.09.7,0,1.41.04,2.12s.18,1.44.65,1.97,1.33.75,1.9.34c.17-.12.3-.29.49-.38s.46-.06.54.13c.8.4,1.33.81,1.88,1.52-.3,1.03-.57,2.19-.39,3.24s1.01,2.08,2.08,2.11c.76.02,1.45-.45,2.01-.97.49.37,1.05.93,1.45,1.4.09,1.18.55,2.44,1.19,3.43.12.19.26.38.45.52.35.24.81.23,1.23.2.47-.04.94-.09,1.4-.16.44.24.93.42,1.36.66.08.04.16.09.2.17.05.09.04.19.03.28-.08.97.14,1.96.63,2.8.46.8,1.28,1.51,2.21,1.43.5-.05.94-.32,1.37-.58,1.08.56,1.85,1.35,2.28,2.48.17.44.27.9.47,1.32.61,1.33,2.19,2.14,3.63,1.86.24-.05.48-.12.73-.12.79,0,1.38.68,1.85,1.31.58.77,1.05,1.6,1.35,2.51.05.16.11.32.21.44.11.14.27.23.44.31.49.21,1.05.25,1.57.11.58-.16,1.21-.52,1.73-.21.49,1.04,1.02,2.22,1.7,3.15.45.61.98,1.22,1.7,1.45,1.06.34,2.29-.19,3.28.32.84.43,1.25,1.52,2.16,1.78-.17.53.34,1.31.76,1.69,1.16,1.03,2.9.94,4.41,1.3.97.23,1.99.78,2.26,1.75.09.34.12.75.42.93.12.07.27.08.41.1.94.09,1.87.17,2.81.26.12.41.7.71,1.12.76s.86-.02,1.27.1c.28.08.52.24.77.38.72.41,1.55.73,2.36.56.69-.15,1.26-.63,1.9-.91,1.69-.74,3.8-.1,5.36-1.07.88.23,1.66.52,2.54.76.57.15,1.25.28,1.69-.12.21-.19.32-.47.49-.69s.49-.39.74-.26c.39.22.99.12,1.43.19.53.08,1.08.17,1.59,0s.95-.67.86-1.19c.72.04,1.53-.27,2.26-.3.38-.01.79-.05,1.06-.31.33-.32.33-.84.35-1.3s.14-1.01.57-1.17c.58-.23,1.38-.24,1.64-.81.19-.42-.1-.94.06-1.37,1.65-1.01,2.79-2.81,2.97-4.74.07-.78.06-1.7.7-2.15,1.33-3.75,1.65-8,1.87-11.97.04-.82.01-1.8-.68-2.26-.86-4.06-3.19-8.26-6.56-10.68-2.9-2.09-6.54-2.79-10.05-3.44l.21,12.55c.74.06,1.11.8,1.63,1.33.23.24.44.5.59.79.11.22.18.45.3.67.33.64.96,1.06,1.57,1.45-.07.93.07,1.91,0,2.85-.58.28-1.1.59-1.59,1s-.88.98-.95,1.61c-.11,1.04-1.85,1.54-2.01,2.57-.63-.01-1.33.21-1.96.2-.19,0-.39,0-.57.06-.14.05-.26.13-.39.18-.3.13-.65.11-.96.22s-.59.46-.44.75c-1.36-.21-2.78-.39-4.14-.6-.54-.08-1.21-.31-1.22-.85.33-.64.36-1.45-.04-2.05s-1.25-.88-1.88-.54c-.37.2-.63.59-1.02.74-.6.24-1.26-.13-1.78-.51s-1.08-.84-1.72-.78c.26-.76.36-1.57.41-2.38.01-.23.01-.48-.13-.66-.08-.1-.18-.16-.3-.21-.81-.36-1.72.13-2.58.34-.78.18-1.61.13-2.36-.16-.26-.1-.55-.27-.57-.55.51-.37.72-.75.98-1.32s.15-1.37-.41-1.66c-.24-.12-.52-.13-.79-.14-.92-.03-1.84-.06-2.75-.09-.22,0-.46-.03-.59-.19-.15-.18-.1-.45-.13-.68-.09-.71-.94-1.2-.88-1.92-.38-.36-.05-1.05.33-1.41s.89-.69.91-1.22c.03-.62-.68-1.05-1.31-1.03s-1.2.32-1.81.46c-1.72.39-3.5-.56-4.73-1.83-.27-.28-.54-.61-.54-1,0-.29.15-.55.29-.81.22-.42.42-.88.4-1.36s-.32-.97-.79-1.08c-.59-.14-1.11.34-1.64.64-1.37.76-3.32.1-3.94-1.33.34-.57.55-1.42.79-2.04.21-.56.37-1.23.02-1.71-.11-.16-.27-.28-.36-.45-.19-.37.02-.84-.11-1.24-.12-.37-.51-.59-.67-.95-.29-.66.31-1.42.1-2.11-.11-.37-.44-.64-.75-.88-.57-.44-1.15-.89-1.72-1.33-3.37-2.6-4.2-7.69-5.07-11.86-.21-1.02-.38-2.05-.33-3.09.47-.25.96-.44,1.49-.45s1.08,0,1.56-.22.88-.72.8-1.24c-.09-.55-.64-.88-1.15-1.09-.96-.37-1.98-.54-2.94-.91s-1.89-1-2.26-1.96c-.13-.34-.2-.74-.5-.96-.02-.8-.01-1.7.43-2.37s1.14-1.17,1.93-1.31c.53-.1,1.16-.06,1.52-.45.45-.49.15-1.35-.41-1.71s-1.27-.37-1.94-.4c-.77-.03-1.54-.11-2.3-.22-.65-.09-1.34-.24-1.8-.71-.35-.35-.7-.97-.97-1.39-.35-.53-.72-1.11-.72-1.75,0-.83.61-1.52,1.2-2.1.31-.31.66-.69.57-1.12-.07-.36-.44-.59-.8-.68-.7-.16-1.45.07-2.15-.11-.64-.16-1.18-.69-1.35-1.33-.25-.9-.69-2.1-.44-3.01.05-.18.12-.36.25-.49.13-.12.29-.18.45-.24.33-.13.65-.29.95-.49.37-.24.75-.61.7-1.06-.05-.41-.43-.68-.78-.9-.52-.32-1.03-.65-1.55-.97.26-1.67.76-3.29,1.56-4.78.34-.65.79-1.31,1.49-1.54.53-.17,1.13-.05,1.66-.24.71-.26,1.13-1.12.9-1.84-.14-.44-.63-.83-1.05-.64-1.15-.29-2.39-.65-3.19-1.53-1.07-1.17-1.07-2.98-.59-4.49.1-.33.23-.66.46-.92.36-.41.92-.56,1.38-.86s.85-.89.58-1.36c-.15-.26-.45-.4-.72-.51-.71-.3-1.42-.59-2.13-.89.02-.31.11-.48.16-.79.09-.6-.43-1.09-.72-1.61-.41-.73-.41-1.63-.36-2.47.04-.73.12-1.46.41-2.13s.85-1.25,1.56-1.41c-.13-.68-.61-1.37-1.3-1.47-.83-1.05-1.84-2.3-2.67-3.36-.18-1.84-.45-3.62-.75-5.44-.07-.45.19-1.13.55-1.39.46-.34,1.11-.29,1.63-.52.75-.33,1.13-1.31.8-2.06-.13-.31-.36-.57-.6-.8-.85-.83-1.94-1.42-3.09-1.7-.12-.32-.44-.56-.72-.76-.21-.14-.46-.24-.64-.41-.4-.37-.44-.98-.39-1.52s.17-1.1,0-1.62c-.3-.89-1.39-1.36-1.61-2.28-.08-.33-.04-.67.01-1,.16-1.1.39-2.2.67-3.28-1.16-.99-2.24-2.18-3.39-3.18-1.17-1.01-2.37-2.07-3.05-3.46-.76-1.55-.78-3.44-.06-5,.56-.32.89-1.24.72-1.86-.86-.76-2.16-.99-3.22-.56-.26-.15-.9-.17-1.2-.17-.28,0-.56.06-.84.03-.75-.07-1.42-.8-2.15-.6-.64-.97-1.66-1.8-2.72-2.27-.07-.88-.67-1.7-1.19-2.42.12-1.06.19-2.08.44-3.11-.13-.22-.4-.26-.66-.26-1.23-.01-2.45-.03-3.68-.04-.64-.45-1.44-.62-2.21-.47-.23-.66-.92-1.16-1.6-1.05.24-.19.06-.69-.18-.88s-.57-.22-.88-.18c.04-.38-.19-.75-.51-.97s-.7-.3-1.07-.38c-.29-.54-.45-1.22-.31-1.82.29-1.21.65-2.54.33-3.74-.43-.26-.93-.22-1.4-.05s-.87.49-1.27.8c-.77.6-1.57,1.25-1.9,2.17-.09.27-.15.56-.33.78-.69-.06-1.35.03-2.02.22-.22.06-.44.15-.66.2-.36.08-.74.04-1.1.02-.43-.02-.89-.01-1.28-.21s-.67-.69-.47-1.08c-.88.36-1.98.14-2.88-.18s-1.76-.78-2.69-.98c-.18-.04-.37-.07-.52-.19-.15-.12-.22-.31-.28-.49-.26-.71-.53-1.45-1.07-1.98-.99-1-2.75-1.22-3.3-2.52-2.3.73-4.97.17-7.25-.61-1.45-.5-2.93-1.1-3.96-2.24-.88-.98-1.3-2.61-.39-3.56.12-.13.27-.24.32-.41.21-.58-.72-.9-.95-1.48-.17-.44.1-1.04-.24-1.38-.26-.26-.71-.17-1.02.03s-.55.51-.89.66c-.95.43-2.32.22-3.1-.48-.34-.3-.72-.78-1.14-.6-.03.86-.23,1.71-.58,2.5-.61-.07-1.3-.24-1.88-.46.04,2.04.17,4.09.38,6.12-.21.27-.71.47-1.04.57-1.19.37-2.14,1.44-2.38,2.66-.07.34-.13.76-.46.89-.55.2-1.25.19-1.83.12-.15-.02-.32-.04-.45.04-.26.16-.17.56-.05.84.3.67.62,1.33.96,1.98-.32,3.68-3.55,6.58-4.43,10.17-.28.12-.68.11-.91-.1s-.32-.55-.23-.84c-.46-.08-.84-.33-1.29-.41-.16-.03-.34-.05-.47.05-.11.08-.16.23-.19.37-.29,1.19-.45,2.42-.47,3.65-.27.41-.55.82-1.01.96-.67.2-1.35-.22-1.96-.57s-1.41-.64-1.97-.22c-.19.66-.33,1.42-.01,2.04.17.33.47.58.67.89.43.66.39,1.5.34,2.29-.05.72-.1,1.45-.15,2.17-.77.68-1.63,1.54-1.75,2.56-.03.23-.02.47-.11.69-.07.17-.21.31-.31.47-.55.84-.09,1.96.4,2.83s1.04,1.91.64,2.83c-.11.26-.29.48-.46.69-.26.32-.51.64-.77.96-.65.82-1.37,1.68-2.38,1.96-1.29.35-2.45,1.08-3.64,1.69-.18.09-.36.18-.55.23-.53.12-1.09-.13-1.63-.05-.41.49-.91.92-1.46,1.24-.32-.17-.68-.2-1.04-.26s-.76,0-1.04.24c-.15.13-.29.33-.49.32-.15,0-.26-.12-.36-.22-.62-.56-1.65-.6-2.31-.1s-1.69.48-2.28,1.09c-.14.15-.27.32-.45.41-.09.05-.19.08-.27.15-.08.07-.13.17-.17.27-.38.88-.59,1.85-.61,2.81,0,.22,0,.44.08.64.09.24.28.43.45.61.71.73,1.43,1.52,1.66,2.51-.36.93-.33,2.09.02,3.02.38.06.91-.14,1.15-.43s.47-.64.84-.77c.53-.18,1.09.19,1.51.56s.9.79,1.46.74c.08.38.53.65.91.72s.77,0,1.15-.01c.83-.02,1.64.23,2.43.47.52-.47,1.1-.94,1.63-1.41,1.58-1.42,3.21-2.88,5.2-3.62.79-.29,1.8-.42,2.38.2.12-.32.1-.6.09-.95,1.19.26,2.57-1.11,3.67-1.61.56-.25,1.18-.34,1.77-.48,2.22-.52,4.18-1.76,6.27-2.67s4.53-1.45,6.61-.53c.19.08.38.18.59.17.26-.02.47-.2.67-.37,1.05-.89,2.25-2.25,3.66-1.81.04.3.37.54.65.67.75.35,1.56.58,2.39.66.59.06,1,.65,1.57.8,1.23.34,2.64-.26,3.78.32.22.6.66,1.12,1.01,1.65.15.22.32.45.55.58s.55.16.76,0c.15-.12.22-.3.29-.48.2-.52.4-1.04.6-1.57.5-1.31,2.04-1.99,3.35-2.48.7-.26,1.44-.42,2.17-.57,1.72-.36,3.42-.84,5.12-1.3,1.17-.32,2.59-1.09,3.82-.61.1.04.2.09.3.14Z"/>
  <path class="cls-3" d="M25.75,46.07c1.16.42,2.76.48,3.34-.44.13-.21.19-.44.24-.67.16-.66.28-1.35.16-2.02-.2-1.13-1.08-2.14-2.18-2.83s-2.39-1.1-3.7-1.43c-6.82-1.72-1,6.26,2.12,7.38Z"/>
  <path class="cls-1" d="M25.34,44.23c.57.21,1.37.24,1.66-.22.06-.1.09-.22.12-.33.08-.33.14-.67.08-1-.1-.56-.54-1.06-1.08-1.4s-1.19-.54-1.83-.71c-3.38-.85-.49,3.1,1.05,3.66Z"/>
  <path class="cls-2" d="M55.97,27.51c-.77.23-1.33,1.04-1.27,1.84s.72,1.53,1.51,1.65c-.8.1-1.2,1.07-1.11,1.86s.5,1.53.63,2.32c.1.6.04,1.22-.03,1.83-.12,1.12-.24,2.24-.35,3.36-.14,1.32-.24,2.78.57,3.83-.34.24-.68.47-1.03.71,1.24.36,2.56.45,3.84.28.25-.03.53-.1.67-.3.17-.24.08-.57-.01-.86-.37-1.12-.74-2.24-1.11-3.36.64-.21,1.26-.52,1.8-.91-.21,1.36-.71,2.7-.54,4.06s1.37,2.75,2.71,2.44c.85-.75.43-2.15-.12-3.15s-1.15-2.25-.51-3.19c.2-.29.49-.5.72-.76.56-.65.69-1.56.78-2.42.25-2.2.5-4.4.76-6.6.06-.5,0-1.16-.48-1.29-.21-.06-.43.03-.63.13-1.11.63-1.46,2.02-1.8,3.24s-.96,2.6-2.19,2.89c-.44-.83-.13-1.85.34-2.67s1.09-1.56,1.32-2.46-.12-2.07-1.02-2.32c-.28-.08-.57-.06-.84-.15-.88-.29-1.02-1.45-1.01-2.38,0-.9.8-6.91-1.68-5.18-1.12.78.55,7.41.07,7.53Z"/>
  <path class="cls-2" d="M61.07,12.9c-.66,1.53-.36,3.33.38,4.83s1.86,2.75,2.91,4.05c2.49,3.07,4.63,6.43,6.34,10,.45.94,1.5,2.07,2.31,1.41.23-.19.35-.49.45-.77.37-1.02.75-2.04,1.12-3.06.74.6,1.06,1.68.74,2.58,2.42,0,4.23-3.06,3.08-5.18,1.39-.09,3.1.94,2.73,2.28-.11.4-.39.73-.57,1.1-1.03,2.12,1.34,4.87.13,6.9.91.83,2.35-.43,2.49-1.65s-.27-2.54.26-3.66c1.31-.09,2.64-.04,3.94.16.12-1.3.24-2.61.36-3.91,1.85-.33,3.85.32,5.15,1.67-1.33.26-1.87,2.27-.85,3.15-1.07.71-2.52-.28-3.77,0-.94.2-1.57,1.06-2.04,1.9-1.76,3.12-2.5,6.81-2.06,10.36-.99.03-2.01.06-2.89.51s-1.58,1.42-1.37,2.38c1.18,1.38,3.95.3,3.89-1.52-.01-.4-.13-.8-.05-1.19.22-.93,1.48-1.19,2.39-.88s1.69.96,2.63,1.16c1.17.24,2.46-.35,3.04-1.39s.4-2.45-.42-3.32c1.71.43,3.42.85,5.12,1.28.42.1.91.2,1.25-.07.45-.36.31-1.06.29-1.64-.06-1.54,1.22-3,2.75-3.15"/>
  <path class="cls-2" d="M106.61,58.25c-1.35-.19-2.16-1.61-3.37-2.22-1.52-.77-3.62.04-4.23,1.63-.37.98-.23,2.12-.73,3.04-.46.86-1.38,1.36-2.28,1.73s-1.85.69-2.56,1.36-1.1,1.8-.59,2.63c.75,1.19,2.59.82,3.81.12s2.61-1.63,3.92-1.09c.51.21.91.63,1.38.93.98.64,2.28.76,3.35.3s1.9-1.47,2.12-2.62c.08-.43.09-.88.28-1.27.4-.81,1.45-1.06,2.36-1.04s1.85.22,2.71-.08,1.53-1.39.99-2.12c-.21-.29-.55-.45-.87-.61-2.24-1.14-6.94-6.97-6.28-.7Z"/>
  <path class="cls-2" d="M112.79,91.08c.16,1.97.51,4.37-1.09,5.53-1.46-.59-1.79-2.55-1.5-4.1.28-1.55.94-3.12.61-4.66-.2-.91-.72-1.7-1.24-2.48-1.11-1.66-2.22-3.32-3.33-4.98-1.72.95-2.33,3.06-3.17,4.84-1.25,2.64-3.29,4.81-5.3,6.93-1.2,1.27-2.62,2.63-4.36,2.57-1.18-2.99-2.62-5.87-4.31-8.61-1.62.4-2.54,2.05-3.33,3.52-1.28,2.37-2.73,4.69-4.68,6.55-1.39,1.33-3.14,2.45-5.06,2.42-1.05-.01-2.06-.37-2.99-.84-2.54-1.29-4.59-3.53-5.65-6.17-.35-.86-.6-1.78-1.18-2.51s-1.58-1.23-2.44-.86c-1.32.56-1.21,2.4-1.49,3.8-.27,1.34-1.09,2.51-1.46,3.83-.29,1.02-.3,2.09-.31,3.14-.04,3.51-.07,7.02-.11,10.54,0,.51,0,1.05.28,1.47.47.7,1.54.76,2.29.37s1.27-1.1,1.82-1.75c2.36-2.8,5.62-4.84,9.18-5.72,1.6-.4,3.31-.56,4.89-.09,2.99.89,4.94,3.88,5.65,6.92.28,1.22.45,2.57,1.36,3.44.77.74,1.89.95,2.94,1.08,1.44.19,3.15.19,4.05-.94.42-.52.58-1.2.74-1.86.59-2.56,1.18-5.12,1.77-7.68,1.26,2.67,3.88,4.57,4.88,7.35.27.76.5,1.67,1.24,1.99.27.12.58.14.88.15,2.56.14,5.12.28,7.69.41-2.57-3.76-2.36-9.21.51-12.75.33-.41.71-.81,1.18-1.04.41-.2.88-.26,1.3-.44,2.07-.88,1.96-3.78,1.73-6.01-.38-3.72-.14-7.5.73-11.14.12-.49-1.29-.1-1.44,0-.41.27-.7,1.99-.81,2.43-.44,1.75-.59,3.56-.44,5.36Z"/>
  <path class="cls-2" d="M86.97,63.99c-.78.13-1.3.96-1.27,1.75s.49,1.5,1.07,2.03c.54.5,1.42.86,1.96.36.22-.2.32-.51.36-.81.23-1.64-1.32-3.28-2.97-3.15"/>
  <path class="cls-2" d="M88.22,76.3c-.66.62-.89,1.74-.31,2.44s1.96.5,2.13-.39c.07-.37-.07-.76-.28-1.07-.41-.62-1.12-1.03-1.86-1.1"/>
  <path class="cls-2" d="M90.06,123.83c-.55.23-1.12.49-1.48.96s-.43,1.23.02,1.62c.16.14.36.21.56.29.9.33,2.15.55,2.61-.3.33-.62-.1-1.43-.72-1.76s-1.37-.3-2.07-.27"/>
  <path class="cls-2" d="M96.4,134.43c-.46.11-.94.23-1.31.52s-.62.81-.45,1.25c.22.59.98.74,1.62.78.48.03,1.02.03,1.36-.31.37-.39.26-1.1-.17-1.43s-1.06-.31-1.53-.05"/>
  <path class="cls-2" d="M103.41,144.54c.71.32.89,1.43.31,1.96s-1.67.25-1.92-.49.44-1.63,1.22-1.57"/>
  <path class="cls-2" d="M107.86,152.15c-.6.29-.61,1.22-.17,1.73s1.13.7,1.77.87c.37.1.79.18,1.11-.03.37-.25.41-.82.18-1.21s-.64-.62-1.05-.81c-.71-.32-1.45-.55-2.22-.67"/>
  <path class="cls-2" d="M117.62,152.12c-.72-.01-1.7.08-1.8.8-.08.57.52,1.2.17,1.66-.25.32-.74.23-1.14.3-.59.11-1.02.65-1.17,1.23s-.05,1.19.08,1.77c.13.57.3,1.22-.04,1.7-.29.41-.85.54-1.21.89-.49.48-.51,1.28-.24,1.91s.79,1.11,1.29,1.57c.2.19.45.39.72.35.19-.03.34-.16.49-.29,1.27-1.05,3.01-1.3,4.66-1.36s3.34.04,4.9-.47c.16-.05.31-.11.43-.23.15-.16.19-.4.18-.62-.07-1.3-1.52-2.38-1.2-3.64.32-1.23,2.11-1.58,2.49-2.8.11-.35.09-.73.03-1.1-.94-6.01-4.82-1.61-8.65-1.68Z"/>
  <path class="cls-2" d="M134.74,169.81c-1.08.27-2.4.82-2.41,1.93,0,.3.1.59.08.88-.03.43-.32.8-.48,1.2-.47,1.17.21,2.59,1.3,3.24s2.46.65,3.68.34c.66-.16,1.32-.42,1.8-.9.33-.33.57-.75.97-.98.64-.36,1.47-.12,2.14-.43.69-.31,1.02-1.15.94-1.9s-.5-1.42-.98-2.01c-2.31-2.83-3.84-2.19-7.05-1.39Z"/>
  <path class="cls-2" d="M150.37,188.1c0,.92.69,1.87.26,2.68-.25.47-.85.78-.87,1.32-.02.51.51.86.98,1.07,1.08.48,2.23.81,3.41.98.53.08,1.07.12,1.59.02,1.06-.2,1.93-.95,2.73-1.67.83-.75,1.71-1.55,2.01-2.63.31-1.08.13-2.51,1.12-3.03.36-.19.84-.22,1.08-.55.36-.5-.13-1.17-.61-1.56-2.7-2.19-3.67-2.31-6.19-.6-1.57,1.06-5.53,1.48-5.51,3.97Z"/>
  <path class="cls-2" d="M178.85,187.99c.23,1.7-.26,3.4-.78,5.03,2.09.21,4.23-1.23,4.82-3.25.59-2.02-.44-4.38-2.31-5.33-1.15-.58-2.65-.74-3.88-.39.52,1.43,1.93,2.21,2.16,3.94Z"/>
  <path class="cls-2" d="M179.41,179.12c2.33-.37,4.76-.03,6.91.95.16.08.35.15.52.08.19-.09.23-.34.22-.55-.04-1.74-1.55-3.27-3.28-3.5s-3.5.75-4.39,2.25"/>
  <path class="cls-2" d="M181.12,170.83c.88.17,1.67.67,2.56.78s1.98-.44,1.93-1.33c-.03-.51-.42-.92-.81-1.24-.95-.8-2.07-1.4-3.26-1.76-.33-.1-.68-.18-1-.09-.81.23-.98,1.29-.99,2.13,0,.42.14,1,.56.97"/>
  <path class="cls-2" d="M177.86,159.1c-.28.43-.1,1.03.27,1.39s.88.52,1.36.67c.46.14,1.05.25,1.35-.13.3-.38.04-.93-.24-1.33-.64-.88-1.65-1.73-2.7-1.43"/>
  <path class="cls-2" d="M116.83,141.83c.5.16,1.01.32,1.53.26s1.05-.37,1.18-.88c.23-.89-.82-1.63-.89-2.54-.1-1.24,1.54-1.93,1.88-3.13.34-1.2-.71-2.3-1.66-3.11-.44-.37-.87-.74-1.31-1.12-.21-.18-.43-.36-.69-.46-.32-.11-.67-.08-1.01-.02-2.05.38-4.02,2.2-3.69,4.25-2.49-.76-5.15.93-3.34,3.63,1.32,1.97,5.89,2.44,7.99,3.1Z"/>
  <path class="cls-2" d="M112.01,125.37c-1.23.94-1.05,3.17.31,3.9.31.16.66.26,1,.2.98-.16,1.35-1.5.91-2.39s-1.38-1.4-2.27-1.84"/>
  <path class="cls-2" d="M108.58,118.59c-.63.4-.98,1.22-.76,1.94s1.04,1.2,1.76.99,1.13-1.14.76-1.79c-.39-.67-1.3-.79-1.89-1.29"/>
  <path class="cls-2" d="M106.65,75.05c-.88.08-1.77.64-1.96,1.5s.62,1.86,1.48,1.64c.56-.14.93-.74.9-1.32s-.4-1.1-.88-1.42"/>
  <path class="cls-2" d="M100.56,47.63c-.75-.08-1.54.33-1.84,1.02s-.04,1.59.62,1.95,1.61.07,1.89-.62-.25-1.6-1-1.64"/>
  <path class="cls-2" d="M37.46,23.24c-.69.56-1.4,1.14-1.79,1.94s-.36,1.87.3,2.46c.38.34.96.51,1.15.99.13.34.01.74.11,1.1.22.86,1.58.92,2.15.23s.51-1.69.28-2.55-.61-1.7-.59-2.59c.02-.62.22-1.24.06-1.83s-.97-1.06-1.39-.61"/>
  <path class="cls-2" d="M39.17,13.27c.22.23.57.25.88.2.48-.07.93-.29,1.29-.61.44-.4.79-.98,1.38-1.07.81-.13,1.43.76,2.24.88.98.15,1.76-.87,1.94-1.84s.03-2,.34-2.93c.08-.24.19-.48.21-.73.07-.79-.73-1.4-1.5-1.61-1.3-.35-2.76-.01-3.78.87-1.28,1.12-2.72.84-3.27,2.4-.16.46-.03,4.13.26,4.44Z"/>
  <path class="cls-2" d="M26.02,34.68c.31.71.75,1.4,1.42,1.8s1.61.42,2.17-.12c.73-.69.44-2.06-.42-2.58s-2.04-.27-2.79.4"/>
  <path class="cls-2" d="M35.29,53.58c.35-1.31.04-2.78-.8-3.84-.39-.5-.92-1.16-.55-1.67.4-.56,1.29-.15,1.79.33s1.28,1,1.8.55c.24-.2.31-.54.36-.84.14-.76.27-1.51.41-2.27.58.67,1.17,1.34,1.75,2.01.16.19.34.39.59.45.47.11.88-.34,1.06-.79s.26-.97.62-1.29c.86,1.09,1.73,2.17,2.59,3.26.62-.67,1.39-1.19,2.24-1.52l1.32,2.62c.58-.31.75-1.26,1.41-1.33,1.09-.11.85,2.1,1.91,2.41.71-1.05,1.67-1.93,2.79-2.53.23.62.69,1.36,1.33,1.22.45-.1.68-.58,1.03-.87.72-.57,2,.01,2.04.93.9-.54,2.24.03,2.48,1.05"/>
  <path class="cls-2" d="M62.72,125.53c1.26-.49,2.9-.9,3.79.11.51.58.55,1.47.24,2.18s-.91,1.25-1.57,1.65"/>
  <path class="cls-2" d="M70.64,137.14l2.63-1c.18-.07.38-.14.56-.09.17.05.29.18.41.31.43.47.87.95,1.12,1.54s.28,1.31-.09,1.83"/>
  <path class="cls-2" d="M83.26,145.21l.2-2.34c.02-.22.05-.47.2-.63.38-.39,1.02.05,1.37.47.86,1.03,1.72,2.06,2.58,3.09"/>
  <path class="cls-2" d="M93.52,145.24c.55-.79,1.82-.93,2.53-.28s.68,1.92-.05,2.54"/>
  <path class="cls-2" d="M96.46,152.18c.39-.5,1.15-.66,1.72-.37s.87,1.01.69,1.61"/>
  <path class="cls-2" d="M100.99,156.66c.51-.34,1.25-.05,1.61.46s.41,1.15.47,1.77"/>
  <path class="cls-2" d="M105.88,161.61c1.9-.25,3.84,1.37,3.93,3.29"/>
</svg>